<svg width="251" height="67" viewBox="0 0 251 67" fill="none" xmlns="http://www.w3.org/2000/svg">
<path d="M37.675 57.9741L46.6183 1.69458H64.6966C70.2755 1.69458 74.5768 3.24897 77.6004 6.35774C80.6667 9.41291 82.1998 13.7009 82.1998 19.2216C82.1998 23.9384 81.3268 28.0655 79.5807 31.6031C77.8347 35.0871 75.322 37.7671 72.0428 39.643C68.8062 41.519 64.9521 42.457 60.4804 42.457H45.9795L51.4733 36.5075L48.0876 57.9741H37.675ZM51.2177 38.0351L47.5765 31.8443H60.9276C64.3346 31.8443 66.975 30.8795 68.8488 28.9499C70.7652 26.9667 71.7234 24.0992 71.7234 20.3472C71.7234 17.6136 70.9994 15.6037 69.5515 14.3173C68.1035 12.9773 66.0593 12.3073 63.4189 12.3073H50.8345L56.3282 5.95574L51.2177 38.0351Z" fill="#F7F7F7"/>
<path d="M17.0098 57.9741C12.9059 57.9741 9.48603 56.9202 6.75012 54.8123C4.01421 52.7045 2.08298 49.7798 0.956431 46.0384C-0.129886 42.2443 -0.290822 37.7915 0.473624 32.6799L5.18099 1.69458H15.0182L10.3108 32.4428C9.94872 34.9195 9.84813 37.0801 10.0091 38.9244C10.17 40.7688 10.5723 42.297 11.2161 43.509C11.9001 44.721 12.8254 45.6168 13.9922 46.1965C15.159 46.7761 16.527 47.066 18.0961 47.066C20.0676 47.066 21.7775 46.5654 23.2259 45.5641C24.6743 44.5629 25.8814 42.982 26.847 40.8215C27.8126 38.6609 28.5569 35.868 29.08 32.4428L33.7873 1.69458H43.3831L38.6154 33.2332C37.3682 41.4011 34.934 47.5666 31.3129 51.7296C27.6919 55.8926 22.9242 57.9741 17.0098 57.9741Z" fill="#F7F7F7"/>
<g filter="url(#filter0_d_844_849)">
<path d="M147.595 46.7532H108.575V58.4755H147.595L156.463 52.6143L147.595 46.7532Z" fill="#B1DF75"/>
<path d="M150.117 52.6143L141.84 46.7532H151.977L160.182 52.4971L151.977 58.4755H141.84L150.117 52.6143Z" fill="#B1DF75"/>
<path d="M198.178 52.6143L189.901 46.7532H200.039L208.244 52.4971L200.039 58.4755H189.901L198.178 52.6143Z" fill="#B1DF75"/>
<path d="M88.0609 58.4756H130.261V46.7532H107.989C112.678 41.0874 120.883 32.6865 123.814 27.9976C127.606 21.9306 131.876 2.5605 110.776 0.216031C90.3539 -2.05307 87.4748 14.1262 86.8887 22.1365H100.955C100.369 18.4244 102.714 11.5864 108.575 13.3447C116.107 15.6043 111.31 23.1133 107.989 26.8254L88.0609 47.9255V58.4756Z" fill="#B1DF75"/>
<path d="M169.016 52.6143L160.739 46.7532H170.876L179.082 52.4971L170.876 58.4755H160.739L169.016 52.6143Z" fill="#B1DF75"/>
<path d="M178.98 52.6143L170.703 46.7532H180.84L189.046 52.4971L180.84 58.4755H170.703L178.98 52.6143Z" fill="#B1DF75"/>
<path d="M180.667 51.4421L174.806 50.2699L176.564 55.5449L180.081 54.3727L180.667 51.4421Z" fill="#B1DF75"/>
<path d="M181.356 50.9819L180.655 54.4871L180.589 54.8214L176.193 56.2867L173.93 49.4972L181.356 50.9819ZM176.935 54.8031L179.573 53.9228L179.977 51.9011L175.682 51.0426L176.935 54.8031Z" fill="#B1DF75"/>
</g>
<path d="M224.352 43.4189L224.133 42.3835L217.793 12.3765H227.554L231.084 30.6569L232.202 36.4412L224.352 43.4189Z" fill="#F7F7F7"/>
<path d="M241.394 12.3765L231.084 30.6569L232.202 36.4412L224.352 43.4189L224.133 42.3835L211.738 58.8275H222.636L233.079 43.4738L251 12.3765H241.394Z" fill="#F7F7F7"/>
<path d="M193.321 42.6493C191.324 42.6493 189.413 42.1182 187.589 41.0559C185.764 39.9937 184.283 38.4553 183.147 36.4408C182.045 34.4262 181.495 31.9722 181.495 29.0785C181.495 26.5878 181.891 24.2985 182.682 22.2107C183.474 20.1229 184.559 18.3098 185.936 16.7715C187.348 15.2331 188.966 14.0427 190.79 13.2002C192.65 12.3211 194.612 11.8816 196.678 11.8816C198.95 11.8816 200.895 12.3578 202.514 13.3101C204.166 14.2258 205.371 15.7276 206.129 17.8154C206.886 19.8665 207.058 22.6503 206.645 26.1666C206.335 29.4998 205.595 32.4117 204.424 34.9024C203.254 37.3931 201.739 39.3161 199.88 40.6713C198.021 41.99 195.834 42.6493 193.321 42.6493ZM196.729 34.2431C198.038 34.2431 199.191 33.8951 200.19 33.1992C201.188 32.5033 201.963 31.5326 202.514 30.2873C203.099 29.0419 203.391 27.5951 203.391 25.9468C203.391 24.2253 202.927 22.8517 201.997 21.8261C201.068 20.7639 199.759 20.2328 198.072 20.2328C196.798 20.2328 195.645 20.5991 194.612 21.3317C193.614 22.0276 192.822 22.9982 192.236 24.2436C191.686 25.489 191.41 26.9358 191.41 28.584C191.41 30.3056 191.875 31.6791 192.805 32.7047C193.734 33.7303 195.042 34.2431 196.729 34.2431ZM200.861 42.1548L201.842 37.155L203.701 27.3204L204.941 17.4857L205.922 12.3761H215.734L210.157 42.1548H200.861Z" fill="#F7F7F7"/>
<path d="M164.369 42.1556L172.012 1.38843H181.824L174.181 42.1556H164.369Z" fill="#F7F7F7"/>
<path d="M130.117 41.7689L137.463 1.57983H152.993C157.75 1.57983 161.423 2.70896 164.011 4.9672C166.599 7.22544 167.893 10.4023 167.893 14.4977C167.893 17.866 167.159 20.8132 165.69 23.3393C164.221 25.8655 162.122 27.8175 159.394 29.1955C156.666 30.5734 153.448 31.2623 149.74 31.2623H137.83L143.339 26.21L140.506 41.7689H130.117ZM143.077 27.5305L139.457 22.3059H150.212C152.486 22.3059 154.252 21.7126 155.511 20.5261C156.771 19.3396 157.4 17.6555 157.4 15.4738C157.4 13.7897 156.893 12.5457 155.879 11.7419C154.864 10.9381 153.448 10.5362 151.629 10.5362H141.66L147.169 5.13944L143.077 27.5305Z" fill="#F7F7F7"/>
<defs>
<filter id="filter0_d_844_849" x="82.8887" y="0" width="129.355" height="66.4756" filterUnits="userSpaceOnUse" color-interpolation-filters="sRGB">
<feFlood flood-opacity="0" result="BackgroundImageFix"/>
<feColorMatrix in="SourceAlpha" type="matrix" values="0 0 0 0 0 0 0 0 0 0 0 0 0 0 0 0 0 0 127 0" result="hardAlpha"/>
<feOffset dy="4"/>
<feGaussianBlur stdDeviation="2"/>
<feComposite in2="hardAlpha" operator="out"/>
<feColorMatrix type="matrix" values="0 0 0 0 0 0 0 0 0 0 0 0 0 0 0 0 0 0 0.24 0"/>
<feBlend mode="normal" in2="BackgroundImageFix" result="effect1_dropShadow_844_849"/>
<feBlend mode="normal" in="SourceGraphic" in2="effect1_dropShadow_844_849" result="shape"/>
</filter>
</defs>
</svg>
