<svg width="503" height="197" viewBox="0 0 503 197" fill="none" xmlns="http://www.w3.org/2000/svg">
<path d="M67.3364 186.328C51.0906 186.325 37.5531 182.935 26.7239 176.159C15.8947 169.382 8.25148 159.982 3.79423 147.957C-0.50371 135.762 -1.13796 121.452 1.89148 105.025L20.5462 5.4489L59.4883 5.45663L40.8338 104.271C39.3988 112.23 38.9992 119.174 39.6351 125.101C40.271 131.029 41.8628 135.94 44.4104 139.836C47.1172 143.731 50.7799 146.611 55.3985 148.475C60.017 150.339 65.4321 151.271 71.6437 151.273C79.4481 151.274 86.2175 149.667 91.952 146.45C97.6864 143.233 102.466 138.154 106.29 131.211C110.113 124.268 113.062 115.293 115.135 104.286L133.789 5.47139L171.776 5.47893L152.882 106.833C147.939 133.082 138.299 152.895 123.962 166.271C109.625 179.647 90.7495 186.333 67.3364 186.328Z" fill="#F7F7F7"/>
<g filter="url(#filter0_d_844_885)">
<path d="M368.924 150.327L214.457 150.296L214.449 187.969L368.916 188L404.026 169.17L368.924 150.327Z" fill="#B1DF75"/>
<path d="M431.85 169.175L399.088 150.333L439.218 150.34L471.697 168.807L439.21 188.013L399.08 188.005L431.85 169.175Z" fill="#B1DF75"/>
<path d="M186.188 187.963L353.244 187.997L353.252 150.324L265.083 150.306C283.649 132.101 316.137 105.109 327.741 90.0421C342.756 70.5473 359.672 8.29935 276.145 0.748157C195.304 -6.56028 183.896 45.4341 181.571 71.1767L237.256 71.1878C234.938 59.2576 244.224 37.2835 267.425 42.9391C297.24 50.207 278.246 74.3353 265.096 86.2624L186.195 154.058L186.188 187.963Z" fill="#B1DF75"/>
</g>
<path d="M352.686 132.996L381.79 3.84318L443.269 3.85539C462.1 3.85913 476.638 7.49076 486.883 14.7503C497.128 22.0098 502.249 32.2205 502.247 45.3824C502.244 56.2071 499.335 65.6782 493.518 73.7956C487.7 81.9129 479.391 88.1847 468.59 92.6109C457.789 97.037 445.05 99.2486 430.372 99.2457L383.225 99.2364L405.036 83.0036L393.811 133.004L352.686 132.996ZM403.997 87.2472L389.669 70.4537L432.247 70.4622C441.248 70.4639 448.24 68.5587 453.226 64.7464C458.211 60.9342 460.705 55.5223 460.706 48.5108C460.707 43.0985 458.7 39.1003 454.685 36.5164C450.67 33.9324 445.063 32.6397 437.863 32.6382L398.4 32.6304L420.212 15.2906L403.997 87.2472Z" fill="#F7F7F7"/>
<defs>
<filter id="filter0_d_844_885" x="177.571" y="0.0512695" width="298.126" height="195.962" filterUnits="userSpaceOnUse" color-interpolation-filters="sRGB">
<feFlood flood-opacity="0" result="BackgroundImageFix"/>
<feColorMatrix in="SourceAlpha" type="matrix" values="0 0 0 0 0 0 0 0 0 0 0 0 0 0 0 0 0 0 127 0" result="hardAlpha"/>
<feOffset dy="4"/>
<feGaussianBlur stdDeviation="2"/>
<feComposite in2="hardAlpha" operator="out"/>
<feColorMatrix type="matrix" values="0 0 0 0 0 0 0 0 0 0 0 0 0 0 0 0 0 0 0.25 0"/>
<feBlend mode="normal" in2="BackgroundImageFix" result="effect1_dropShadow_844_885"/>
<feBlend mode="normal" in="SourceGraphic" in2="effect1_dropShadow_844_885" result="shape"/>
</filter>
</defs>
</svg>
