<svg width="719" height="181" viewBox="0 0 719 181" fill="none" xmlns="http://www.w3.org/2000/svg">
<rect width="719" height="181" rx="15" fill="white"/>
<path d="M650.179 77.7795C654.212 40.8205 719 22 719 22V163.191C719 174.179 716.917 181 703.903 181L149 181C149 181 178.096 177.078 195 173.5C216.534 168.942 225.569 162.086 247.5 160.208C265.6 158.658 276.912 166.326 294.017 160.208C304.599 156.423 308.15 149.462 318.5 145.084C340.142 135.929 354.67 137.281 378.5 140.546C402.33 143.812 414.159 165.14 438.207 160.208C450.989 157.587 455.177 147.497 468 145.084C484.596 141.96 494.27 157.664 510.507 153.024C522.875 149.49 525.291 138.578 537.209 133.74C560.824 124.154 570.465 124.773 595.5 120C618.301 115.653 630.737 135.546 638 113.5C642.529 99.7528 648.608 92.1683 650.179 77.7795Z" fill="url(#paint0_linear_2584_362)"/>
<defs>
<linearGradient id="paint0_linear_2584_362" x1="149" y1="96.5" x2="719" y2="96.5" gradientUnits="userSpaceOnUse">
<stop offset="0.43" stop-color="#3D6C3F"/>
<stop offset="1" stop-color="#B1DF75"/>
</linearGradient>
</defs>
</svg>
