<svg width="720" height="181" viewBox="0 0 720 181" fill="none" xmlns="http://www.w3.org/2000/svg">
<rect width="719" height="181" rx="15" fill="white"/>
<path d="M695.591 43.1761C703.028 32.8963 719 21 719 21V160.5C721 180.5 708.5 181 706 181H116C116 181 126.807 177.73 133.959 176.209C153.292 172.098 165.263 180.435 184.571 176.209C205.488 171.631 212.55 152.098 233.959 152.399C253.011 152.667 259.538 170.096 278.449 172.43C302.351 175.38 316.266 166.845 338.041 156.556C353.812 149.104 358.538 136.036 375.592 132.369C400.038 127.111 411.899 147.441 436.408 152.399C477.497 160.712 513.811 181.739 543.755 152.399C550.684 145.609 550.612 138.088 558.449 132.369C570.73 123.406 581.957 129.144 597.02 127.077C612.083 125.011 622.67 129.798 635.592 121.786C647.546 114.374 647.593 103.306 656.816 92.6854C666.132 81.9586 674.7 78.9393 682.938 67.3638C689.12 58.6785 689.343 51.8133 695.591 43.1761Z" fill="url(#paint0_linear_2584_363)"/>
<defs>
<linearGradient id="paint0_linear_2584_363" x1="116" y1="101" x2="719" y2="101" gradientUnits="userSpaceOnUse">
<stop stop-color="#B1DF75"/>
<stop offset="1" stop-color="#3D6C3F"/>
</linearGradient>
</defs>
</svg>
