<svg width="190" height="209" viewBox="0 0 190 209" fill="none" xmlns="http://www.w3.org/2000/svg">
<path d="M33.221 149.604C33.221 149.604 63.3508 130.699 69.8493 128.927C76.3479 127.154 123.02 146.65 123.02 146.65C123.02 146.65 135.426 151.376 131.29 160.238C127.155 169.1 106.478 160.238 106.478 160.238L91.7082 156.693M50.3536 183.279L58.6245 180.915L115.93 197.457L179.144 160.238C179.144 160.238 191.55 149.604 184.461 142.515C177.372 135.425 164.965 146.059 164.965 146.059L137.789 163.192M2.50043 156.693L27.3132 142.515L53.3075 193.322L27.3132 206.319L2.50043 156.693Z" stroke="black" stroke-width="5" stroke-linecap="round" stroke-linejoin="round"/>
<circle cx="34.4025" cy="186.823" r="2.36312" fill="black"/>
<path d="M119.475 4.86304L102.342 36.1744L69.8494 41.4914L92.299 66.8949L86.982 102.342L119.475 87.5722L150.195 102.342L146.651 65.1226L169.1 41.4914L135.426 36.1744L119.475 4.86304Z" fill="#B1DF75" stroke="black" stroke-width="5" stroke-linecap="round" stroke-linejoin="round"/>
<path d="M121.838 102.342V125.973" stroke="black" stroke-width="5" stroke-linecap="round" stroke-linejoin="round"/>
<path d="M76.4116 74.5752L56.8522 87.8365" stroke="black" stroke-width="5" stroke-linecap="round" stroke-linejoin="round"/>
<path d="M88.8566 19.2751L72.2125 2.5" stroke="black" stroke-width="5" stroke-linecap="round" stroke-linejoin="round"/>
<path d="M167.204 2.5L150.195 18.9054" stroke="black" stroke-width="5" stroke-linecap="round" stroke-linejoin="round"/>
<path d="M164.722 74.4795L184.259 87.774" stroke="black" stroke-width="5" stroke-linecap="round" stroke-linejoin="round"/>
</svg>
