<svg width="192" height="186" viewBox="0 0 192 186" fill="none" xmlns="http://www.w3.org/2000/svg">
<circle cx="82.7606" cy="102.435" r="32.2134" fill="#B1DF75"/>
<path d="M101.922 78.1085C96.8685 74.0997 90.5291 71.6217 83.5864 71.4014C66.4071 70.8564 52.0388 84.3411 51.4937 101.52C50.9487 118.7 64.4334 133.068 81.6126 133.613C98.7919 134.158 113.16 120.673 113.705 103.494C113.869 98.3471 112.773 93.4524 110.695 89.1062" stroke="black" stroke-width="5" stroke-linecap="round"/>
<path d="M101.922 78.1085C96.8685 74.0997 90.5291 71.6217 83.5864 71.4014C66.4071 70.8564 52.0388 84.3411 51.4937 101.52C50.9487 118.7 64.4334 133.068 81.6126 133.613C98.7919 134.158 113.16 120.673 113.705 103.494C113.869 98.3471 112.773 93.4524 110.695 89.1062" stroke="black" stroke-width="5" stroke-linecap="round"/>
<path d="M117.802 58.1444C108.137 50.4643 95.904 45.8763 82.5995 45.8763C51.3231 45.8763 25.9687 71.2308 25.9687 102.507C25.9687 133.784 51.3231 159.138 82.5995 159.138C113.876 159.138 139.23 133.784 139.23 102.507C139.23 91.0118 135.805 80.3163 129.92 71.3857" stroke="black" stroke-width="5" stroke-linecap="round"/>
<path d="M133.642 40.7745C119.783 29.3023 101.996 22.4077 82.5994 22.4077C38.3617 22.4077 2.5 58.2695 2.5 102.507C2.5 146.745 38.3617 182.607 82.5994 182.607C126.837 182.607 162.699 146.745 162.699 102.507C162.699 84.2914 156.618 67.4958 146.376 54.0393" stroke="black" stroke-width="5" stroke-linecap="round"/>
<path d="M83.1097 106.078L183.617 5.57141" stroke="black" stroke-width="5" stroke-linecap="round"/>
<path d="M161.679 17.8159L160.658 28.5299L170.862 26.9993L189.229 13.2242H174.943L173.413 2.00012L161.679 17.8159Z" fill="#152614" stroke="black" stroke-width="4" stroke-linecap="round" stroke-linejoin="round"/>
</svg>
