<svg width="204" height="186" viewBox="0 0 204 186" fill="none" xmlns="http://www.w3.org/2000/svg">
<path d="M103.579 44.8344C55.2523 44.8344 16.0569 76.817 2.5 92.8083C16.8544 108.4 57.1662 139.583 103.579 139.583C149.991 139.583 187.91 108.4 201.069 92.8083C188.708 76.817 151.905 44.8344 103.579 44.8344Z" stroke="#152614" stroke-width="5" stroke-linecap="round" stroke-linejoin="round"/>
<circle cx="103.296" cy="92.2086" r="44.8742" stroke="#152614" stroke-width="5"/>
<circle cx="103.296" cy="92.2087" r="25.7229" stroke="black" stroke-width="5"/>
<circle cx="103.426" cy="92.3957" r="28.1269" fill="#B1DF75"/>
<circle cx="103.296" cy="92.2087" r="25.7229" stroke="#152614" stroke-width="5"/>
<path d="M101.783 2.5V24.438M144.324 32.7389L154.702 14.9513M47.8583 14.9513L58.6433 32.7389" stroke="#152614" stroke-width="5" stroke-linecap="round" stroke-linejoin="round"/>
<path d="M101.783 182.925V160.256M144.324 151.678L154.702 170.059M47.8583 170.059L58.6433 151.678" stroke="#152614" stroke-width="5" stroke-linecap="round" stroke-linejoin="round"/>
</svg>
