<?xml version="1.0" ?><svg id="Layer_1" style="enable-background:new 0 0 65 65;" version="1.1" viewBox="0 0 65 65" xml:space="preserve" xmlns="http://www.w3.org/2000/svg" xmlns:xlink="http://www.w3.org/1999/xlink"><style type="text/css">
	.st0{fill:#1C1F20;}
</style><g><path class="st0" d="M63.5,0.7c-0.4,0-0.8,0.3-0.8,0.8v16c0,0.4,0.3,0.8,0.8,0.8s0.8-0.3,0.8-0.8v-16C64.3,1,63.9,0.7,63.5,0.7z"/><path class="st0" d="M63.5,20.7c-0.4,0-0.8,0.3-0.8,0.8v2c0,0.4,0.3,0.8,0.8,0.8s0.8-0.3,0.8-0.8v-2C64.3,21,63.9,20.7,63.5,20.7z"/><path class="st0" d="M17.5,9.3c0.4,0,0.8-0.3,0.8-0.8s-0.3-0.8-0.8-0.8h-11c-0.4,0-0.8,0.3-0.8,0.8s0.3,0.8,0.8,0.8H17.5z"/><path class="st0" d="M2.5,7.8h-1c-0.4,0-0.8,0.3-0.8,0.8s0.3,0.8,0.8,0.8h1c0.4,0,0.8-0.3,0.8-0.8S2.9,7.8,2.5,7.8z"/><path class="st0" d="M50.5,60.8h-1.3v-1.3c0-0.4-0.3-0.8-0.8-0.8s-0.8,0.3-0.8,0.8v1.3h-1.3c-0.4,0-0.8,0.3-0.8,0.8   s0.3,0.8,0.8,0.8h1.3v1.3c0,0.4,0.3,0.8,0.8,0.8s0.8-0.3,0.8-0.8v-1.3h1.3c0.4,0,0.8-0.3,0.8-0.8S50.9,60.8,50.5,60.8z"/><path class="st0" d="M51.5,4.3h1.3v1.3c0,0.4,0.3,0.8,0.8,0.8s0.8-0.3,0.8-0.8V4.3h1.3c0.4,0,0.8-0.3,0.8-0.8s-0.3-0.8-0.8-0.8   h-1.3V1.5c0-0.4-0.3-0.8-0.8-0.8s-0.8,0.3-0.8,0.8v1.3h-1.3c-0.4,0-0.8,0.3-0.8,0.8S51.1,4.3,51.5,4.3z"/><path class="st0" d="M56.7,17.4c-14.6-0.2-24-13.2-24.1-13.3c-0.3-0.4-0.9-0.4-1.2,0c-0.1,0.1-9.5,13.1-24.1,13.3   c-0.4,0-0.7,0.3-0.7,0.7c0,0.3-2.8,30,25.2,42.2c0.1,0,0.2,0.1,0.3,0.1s0.2,0,0.3-0.1c27.9-12.1,25.2-41.9,25.2-42.2   C57.4,17.7,57.1,17.4,56.7,17.4z M32,58.7C7.7,48,7.8,23.2,8,18.9C21,18.4,29.7,8.7,32,5.8c2.3,2.9,11,12.6,24,13.1   C56.2,23.2,56.3,48,32,58.7z"/><path class="st0" d="M50.9,22.8c-8.2-1.6-14.5-6.3-18.4-9.9c-0.3-0.3-0.7-0.3-1,0c-3.8,3.6-10.2,8.3-18.4,9.9   c-0.4,0.1-0.6,0.4-0.6,0.8c0.6,7.8,3.8,22.1,19.1,30c0.1,0.1,0.2,0.1,0.3,0.1c0.1,0,0.2,0,0.3-0.1c15.4-7.9,18.6-22.2,19.1-30   C51.5,23.2,51.2,22.9,50.9,22.8z M32,52.1c-14-7.4-17.2-20.4-17.9-27.9c7.9-1.7,14-6.1,17.9-9.7c3.9,3.6,10.1,7.9,17.9,9.7   C49.3,31.7,46,44.7,32,52.1z"/><path class="st0" d="M27.8,26.5v3.3h-2.3c-0.4,0-0.8,0.3-0.8,0.8v10c0,0.4,0.3,0.8,0.8,0.8h14c0.4,0,0.8-0.3,0.8-0.8v-10   c0-0.4-0.3-0.8-0.8-0.8h-2.3v-3.3c0-2.6-2.1-4.8-4.8-4.8S27.8,23.9,27.8,26.5z M38.8,39.8H26.3v-8.5h2.3h8h2.3V39.8z M29.3,26.5   c0-1.8,1.5-3.3,3.3-3.3s3.3,1.5,3.3,3.3v3.3h-6.5V26.5z"/><path class="st0" d="M32.5,33.8c-0.4,0-0.8,0.3-0.8,0.8v2c0,0.4,0.3,0.8,0.8,0.8s0.8-0.3,0.8-0.8v-2C33.3,34.1,32.9,33.8,32.5,33.8   z"/></g></svg>