<svg width="64" height="64" viewBox="0 0 64 64" fill="none" xmlns="http://www.w3.org/2000/svg">
<path d="M62.8 0C62.4 0 62 0.3 62 0.8V16.8C62 17.2 62.3 17.6 62.8 17.6C63.3 17.6 63.6 17.3 63.6 16.8V0.8C63.6 0.3 63.2 0 62.8 0Z" fill="#F7F7F7"/>
<path d="M62.8 20C62.4 20 62 20.3 62 20.8V22.8C62 23.2 62.3 23.6 62.8 23.6C63.3 23.6 63.6 23.3 63.6 22.8V20.8C63.6 20.3 63.2 20 62.8 20Z" fill="#F7F7F7"/>
<path d="M16.8 8.6C17.2 8.6 17.6 8.3 17.6 7.8C17.6 7.3 17.3 7 16.8 7H5.8C5.4 7 5 7.3 5 7.8C5 8.3 5.3 8.6 5.8 8.6H16.8Z" fill="#F7F7F7"/>
<path d="M1.8 7.1001H0.8C0.4 7.1001 0 7.4001 0 7.9001C0 8.4001 0.3 8.7001 0.8 8.7001H1.8C2.2 8.7001 2.6 8.4001 2.6 7.9001C2.6 7.4001 2.2 7.1001 1.8 7.1001Z" fill="#F7F7F7"/>
<path d="M49.8 60.1H48.5V58.8C48.5 58.4 48.2001 58 47.7001 58C47.2001 58 46.9 58.3 46.9 58.8V60.1H45.6C45.2 60.1 44.8 60.4 44.8 60.9C44.8 61.4 45.1 61.7 45.6 61.7H46.9V63C46.9 63.4 47.2001 63.8 47.7001 63.8C48.2001 63.8 48.5 63.5 48.5 63V61.7H49.8C50.2 61.7 50.6 61.4 50.6 60.9C50.6 60.4 50.2 60.1 49.8 60.1Z" fill="#F7F7F7"/>
<path d="M50.8 3.6H52.1V4.9C52.1 5.3 52.4 5.7 52.9 5.7C53.4 5.7 53.7 5.4 53.7 4.9V3.6H55C55.4 3.6 55.8 3.3 55.8 2.8C55.8 2.3 55.5 2 55 2H53.7V0.8C53.7 0.4 53.4 0 52.9 0C52.4 0 52.1 0.3 52.1 0.8V2.1H50.8C50.4 2.1 50 2.4 50 2.9C50 3.4 50.4 3.6 50.8 3.6Z" fill="#F7F7F7"/>
<path d="M56 16.7001C41.4 16.5001 32 3.5001 31.9 3.4001C31.6 3.0001 31 3.0001 30.7 3.4001C30.6 3.5001 21.2 16.5001 6.60004 16.7001C6.20004 16.7001 5.90004 17.0001 5.90004 17.4001C5.90004 17.7001 3.10004 47.4001 31.1 59.6001C31.2 59.6001 31.3 59.7001 31.4 59.7001C31.5 59.7001 31.6 59.7001 31.7 59.6001C59.6 47.5001 56.9 17.7001 56.9 17.4001C56.7 17.0001 56.4 16.7001 56 16.7001ZM31.3 58.0001C7.00004 47.3001 7.10004 22.5001 7.30004 18.2001C20.3 17.7001 29 8.0001 31.3 5.1001C33.6 8.0001 42.3 17.7001 55.3 18.2001C55.5 22.5001 55.6 47.3001 31.3 58.0001Z" fill="#F7F7F7"/>
<path d="M50.2001 22.1001C42.0001 20.5001 35.7 15.8001 31.8 12.2001C31.5 11.9001 31.1 11.9001 30.8 12.2001C27 15.8001 20.6 20.5001 12.4 22.1001C12 22.2001 11.8 22.5001 11.8 22.9001C12.4 30.7001 15.6 45.0001 30.9 52.9001C31 53.0001 31.1 53.0001 31.2 53.0001C31.3 53.0001 31.4 53.0001 31.5 52.9001C46.9 45.0001 50.1 30.7001 50.6 22.9001C50.8 22.5001 50.5001 22.2001 50.2001 22.1001ZM31.3 51.4001C17.3 44.0001 14.1 31.0001 13.4 23.5001C21.3 21.8001 27.4 17.4001 31.3 13.8001C35.2 17.4001 41.4001 21.7001 49.2001 23.5001C48.6001 31.0001 45.3 44.0001 31.3 51.4001Z" fill="#F7F7F7"/>
<path d="M27.1 25.8V29.1H24.8C24.4 29.1 24 29.4 24 29.9V39.9C24 40.3 24.3 40.7 24.8 40.7H38.8C39.2 40.7 39.6 40.4 39.6 39.9V29.9C39.6 29.5 39.3 29.1 38.8 29.1H36.5V25.8C36.5 23.2 34.4 21 31.7 21C29 21 27.1 23.2 27.1 25.8ZM38.1 39.1H25.6V30.6H27.9H35.9H38.2V39.1H38.1ZM28.6 25.8C28.6 24 30.1 22.5 31.9 22.5C33.7 22.5 35.2 24 35.2 25.8V29.1H28.7V25.8H28.6Z" fill="#F7F7F7"/>
<path d="M31.8 33.1001C31.4 33.1001 31 33.4001 31 33.9001V35.9001C31 36.3001 31.3 36.7001 31.8 36.7001C32.3 36.7001 32.6 36.4001 32.6 35.9001V33.9001C32.6 33.4001 32.2 33.1001 31.8 33.1001Z" fill="#F7F7F7"/>
</svg>
