<svg width="96" height="118" viewBox="0 0 96 118" fill="none" xmlns="http://www.w3.org/2000/svg">
<path d="M31.7431 1.04662C24.4456 3.23962 19.7891 6.98062 16.1056 13.4951C14.1596 16.9136 14.1596 16.9781 13.8121 32.7161L13.4646 48.5186L9.92011 48.8411C5.81961 49.2281 3.17861 50.7116 1.23261 53.5496C-0.0183946 55.5491 -0.0878946 56.7101 0.0511053 79.5431L0.259605 103.473L2.13611 105.666C4.49911 108.633 10.6846 111.6 17.8431 113.277C27.1561 115.534 47.1721 116.373 47.1721 114.567C47.1721 114.244 44.2531 113.986 40.7086 113.986C24.0286 113.986 9.01661 110.374 4.08211 105.15L1.99711 102.957V79.4786C1.99711 62.6441 2.20561 55.5491 2.83111 54.3236C4.56861 50.7761 4.77711 50.7761 39.6661 50.7761C74.9721 50.7761 73.7906 50.6471 76.0146 54.6461C76.8486 56.0651 77.0571 58.9676 77.0571 66.9011C77.0571 74.9636 77.2656 77.2856 77.9606 77.0276C78.5861 76.8341 78.7946 74.1251 78.7946 66.1916C78.7946 56.7101 78.6556 55.3556 77.4046 53.3561C75.6671 50.5826 72.1226 48.8411 68.2306 48.8411H65.3116L65.1031 33.4901L64.8946 18.2036L62.6706 13.8821C61.4891 11.5601 59.1956 8.39962 57.5971 6.91612C51.1336 0.917625 40.2221 -1.59788 31.7431 1.04662ZM50.5081 4.33612C55.3731 6.72262 58.7091 9.94762 61.2111 14.5916C62.7401 17.4296 62.8096 18.3971 63.0181 33.1676L63.2266 48.8411H57.3191H51.3421V34.9091C51.3421 19.3646 50.9946 17.8811 46.6856 14.8496C44.1836 13.1081 39.0406 12.2051 35.7741 12.9791C33.2721 13.5596 29.1021 17.1716 27.9901 19.6226C27.2951 21.1706 27.0171 25.3631 27.0171 35.2961V48.8411H21.0401H15.0631L15.3411 33.8126C15.5496 18.9776 15.5496 18.7841 17.4956 14.9786C22.0131 6.01312 29.7971 1.56262 40.5696 1.94962C45.2956 2.14312 46.7551 2.46562 50.5081 4.33612ZM45.0176 15.8171C45.9906 16.4621 47.3806 17.8166 48.1451 18.7841C49.4656 20.3966 49.6046 21.5576 49.8131 34.7156L50.0216 48.8411H39.5966H29.1021V35.1026C29.1021 19.3001 29.4496 18.0746 34.7316 15.4301C38.2066 13.6886 42.0986 13.8821 45.0176 15.8171Z" fill="#F7F7F7"/>
<path d="M34.6619 55.7836C27.2254 59.5097 26.2524 67.6393 32.5769 72.788C34.5924 74.4817 34.6619 74.6849 34.6619 80.3079C34.6619 85.6599 34.8009 86.1341 36.4689 87.4213C37.5114 88.2343 38.8319 88.844 39.5269 88.844C40.2219 88.844 41.5424 88.2343 42.5849 87.4213C44.3224 86.1341 44.3919 85.7276 44.3919 80.1047C44.3919 74.414 44.4615 74.143 46.3379 72.788C49.118 70.7556 50.8554 66.8941 50.4384 63.71C49.4655 56.5288 41.334 52.464 34.6619 55.7836ZM44.4615 57.8838C47.6585 59.9839 48.701 62.1518 48.284 65.8101C48.0755 68.249 47.5194 69.2652 45.504 70.9589C43.0019 73.059 43.0019 73.059 43.0019 78.682C43.0019 84.6437 42.0289 86.8116 39.4574 86.8116C36.8859 86.8116 36.0519 84.9824 36.0519 79.0207V73.3978L33.2719 70.6879C30.8394 68.3845 30.4919 67.5715 30.4919 64.9972C30.4919 58.087 38.4844 53.9545 44.4615 57.8838Z" fill="#F7F7F7"/>
<path d="M58.7089 76.1077C56.4849 81.3242 55.9289 84.0341 56.9019 85.118C57.8749 86.2697 58.2919 86.2697 65.1029 84.3728C67.9524 83.5598 68.7169 83.0179 68.7169 81.9339C68.7169 81.121 68.2304 79.9693 67.6049 79.2918C66.6319 78.2756 66.7709 78.0724 68.7864 77.3949C72.4004 76.1755 79.0724 76.5142 82.6169 78.0724C88.5244 80.6467 92.7639 85.9987 93.6674 92.0959C93.8759 93.7896 94.5014 95.28 95.0574 95.4833C95.8219 95.7542 95.9609 95.1445 95.6134 92.3669C94.1539 80.037 80.8099 71.7042 68.7864 75.6335C65.1724 76.7852 65.1029 76.7852 63.5739 75.3625C61.3499 73.3301 59.7514 73.6011 58.7089 76.1077ZM64.4774 78.9531L67.3964 81.8662L63.1569 83.0179C60.7939 83.6953 58.7089 84.0341 58.5004 83.8986C58.0834 83.4243 60.5159 75.9722 61.0719 75.9722C61.2804 75.9722 62.8094 77.3271 64.4774 78.9531Z" fill="#F7F7F7"/>
<path d="M6.16699 91.554C6.16699 93.18 11.588 97.719 15.063 99.0062C19.9975 100.835 19.5805 99.8191 14.2985 97.3125C11.588 96.0253 9.50299 94.4671 8.59949 93.1122C7.20949 90.9443 6.16699 90.2668 6.16699 91.554Z" fill="#F7F7F7"/>
<path d="M54.4697 94.4671C53.9137 95.7543 55.3037 101.377 56.8327 104.29C58.4312 107.271 62.6012 111.268 65.7982 112.826C69.4817 114.656 75.0417 115.401 78.8642 114.588C82.1307 113.843 82.3392 113.91 83.7292 115.672C85.8142 118.178 86.9957 117.501 89.5672 112.623C91.8607 108.152 92.2082 106.119 90.6792 105.578C89.6367 105.171 80.8102 106.187 79.7677 106.865C78.7947 107.407 79.0032 109.033 80.2542 110.862C81.2967 112.42 81.2967 112.488 78.0997 112.894C67.6747 114.452 57.8752 107.407 56.4157 97.3124C55.9987 94.1283 55.0952 92.8411 54.4697 94.4671ZM88.1077 111.268C86.9262 113.572 85.7447 115.198 85.4667 114.859C83.5902 112.623 81.2272 109.168 81.2272 108.558C81.2272 107.949 83.4512 107.542 88.3857 107.271L90.2622 107.136L88.1077 111.268Z" fill="#F7F7F7"/>
</svg>
