<svg width="123" height="123" viewBox="0 0 123 123" fill="none" xmlns="http://www.w3.org/2000/svg">
<path d="M2.51447 55.1424C3.2717 55.1424 4.02893 54.5745 4.02893 53.628V27.1248C4.02893 26.3676 3.46101 25.6104 2.51447 25.6104C1.56792 25.6104 1 26.1783 1 27.1248V53.628C1.18931 54.3852 1.75723 55.1424 2.51447 55.1424Z" fill="#F7F7F7"/>
<path d="M2.51461 21.067C3.27184 21.067 4.02908 20.4991 4.02908 19.5526V15.7664C4.02908 15.0092 3.46115 14.252 2.51461 14.252C1.56807 14.252 1.18945 15.0092 1.18945 15.7664V19.5526C1.18945 20.3098 1.75738 21.067 2.51461 21.067Z" fill="#F7F7F7"/>
<path d="M95.2754 118.561H74.4515C73.6942 118.561 72.937 119.128 72.937 120.075C72.937 121.022 73.5049 121.589 74.4515 121.589H95.2754C96.0326 121.589 96.7898 121.022 96.7898 120.075C96.7898 119.128 96.0326 118.561 95.2754 118.561Z" fill="#F7F7F7"/>
<path d="M104.741 118.561H102.848C102.09 118.561 101.333 119.128 101.333 120.075C101.333 121.022 101.901 121.589 102.848 121.589H104.741C105.498 121.589 106.255 121.022 106.255 120.075C106.255 119.128 105.498 118.561 104.741 118.561Z" fill="#F7F7F7"/>
<path d="M13.8729 7.81509H16.3339V10.2761C16.3339 11.0333 16.9018 11.7906 17.8483 11.7906C18.7949 11.7906 19.3628 11.2226 19.3628 10.2761V7.81509H21.8238C22.581 7.81509 23.3383 7.24717 23.3383 6.30063C23.3383 5.35409 22.7703 4.78616 21.8238 4.78616H19.3628V2.51447C19.3628 1.75723 18.7949 1 17.8483 1C16.9018 1 16.3339 1.75723 16.3339 2.51447V4.97547H13.8729C13.1156 4.97547 12.3584 5.5434 12.3584 6.48994C12.3584 7.43648 13.1156 7.81509 13.8729 7.81509Z" fill="#F7F7F7"/>
<path d="M114.206 99.6294H111.745V29.0174C111.745 28.2602 111.177 27.503 110.231 27.503H101.144C103.984 25.2313 105.877 21.6344 105.877 17.4696C105.877 10.4652 100.197 4.59668 93.0038 4.59668C86.378 4.59668 81.0773 9.51869 80.3201 15.9552H29.0176C28.8283 15.9552 28.8283 15.9552 28.639 15.9552H28.4497C28.4497 15.9552 28.2604 15.9552 28.2604 16.1445C28.0711 16.5231 28.0711 16.5231 28.0711 16.7124C28.0711 16.7124 28.0711 16.9017 27.8818 16.9017L27.6924 17.091C27.6924 17.2803 27.6924 17.2803 27.6924 17.4696V17.6589V27.6923H11.9799C11.2226 27.6923 10.4654 28.2602 10.4654 29.2067V99.8187H8.19371C4.21824 99.8187 1 103.037 1 107.012C1 110.988 4.21824 114.206 8.19371 114.206H114.206C118.182 114.206 121.4 110.988 121.4 107.012C121.4 103.037 118.182 99.6294 114.206 99.6294ZM30.5321 20.8772L60.2535 47.191C60.4428 47.3803 60.8214 47.5696 61.2 47.5696C61.5786 47.5696 61.9572 47.3803 62.1465 47.191L84.4849 26.935C86.378 28.8281 89.0283 30.1533 92.0572 30.5319V57.9816H30.5321V20.8772ZM82.5918 24.6633L61.2 44.1621L32.8038 19.1734H80.6987C80.888 21.0665 81.6453 22.9596 82.5918 24.6633ZM93.3824 7.81492C98.8723 7.81492 103.416 12.3583 103.416 17.8483C103.416 23.3382 98.8723 27.8816 93.3824 27.8816C87.8924 27.8816 83.349 23.3382 83.349 17.8483C83.349 12.3583 87.8924 7.81492 93.3824 7.81492ZM114.206 110.988H8.19371C5.92201 110.988 3.83962 109.095 3.83962 106.634C3.83962 104.173 5.7327 102.28 8.19371 102.28H25.2314C25.9887 102.28 26.7459 101.712 26.7459 100.765C26.7459 99.8187 26.178 99.2508 25.2314 99.2508H13.4943V30.5319H27.6924V59.496C27.6924 60.2533 28.2604 61.0105 29.2069 61.0105H93.5717C94.3289 61.0105 95.0862 60.4426 95.0862 59.496V30.5319H109.284V99.6294H36.5899C35.8327 99.6294 35.0755 100.197 35.0755 101.144C35.0755 102.09 35.6434 102.658 36.5899 102.658H114.206C116.478 102.658 118.56 104.551 118.56 107.012C118.56 109.473 116.478 110.988 114.206 110.988Z" fill="#F7F7F7"/>
<path d="M104.362 93.3826V36.5901C104.362 35.8329 103.794 35.0757 102.848 35.0757C101.901 35.0757 101.333 35.6436 101.333 36.5901V92.0574H21.0665V36.5901C21.0665 35.8329 20.4986 35.0757 19.5521 35.0757C18.6055 35.0757 18.0376 35.6436 18.0376 36.5901V93.3826C18.0376 94.1398 18.6055 94.8971 19.5521 94.8971H102.848C103.605 94.8971 104.362 94.1398 104.362 93.3826Z" fill="#F7F7F7"/>
<path d="M45.1086 41.3234L35.6432 50.7888C35.0753 51.3567 35.0753 52.3033 35.6432 52.8712C35.8325 53.0605 36.2112 53.2498 36.5898 53.2498C36.9684 53.2498 37.347 53.0605 37.5363 52.8712L47.0017 43.4058C47.5696 42.8379 47.5696 41.8913 47.0017 41.3234C46.4338 40.7555 45.6766 40.7555 45.1086 41.3234Z" fill="#F7F7F7"/>
<path d="M77.2913 41.3234C76.7234 40.7555 75.7768 40.7555 75.2089 41.3234C74.641 41.8913 74.641 42.8379 75.2089 43.4058L84.6743 52.8712C84.8636 53.0605 85.2422 53.2498 85.6209 53.2498C85.9995 53.2498 86.3781 53.0605 86.5674 52.8712C87.1353 52.3033 87.1353 51.3567 86.5674 50.7888L77.2913 41.3234Z" fill="#F7F7F7"/>
<path d="M92.6248 13.4944V24.0956H95.0858V11.2227H93.0034L89.7852 12.7371L90.3531 14.6302L92.6248 13.4944Z" fill="#F7F7F7"/>
<path d="M31.4788 99.6298C31.1002 99.4405 30.7215 99.4405 30.3429 99.6298C30.1536 99.6298 29.9643 99.8191 29.9643 100.008C29.775 100.198 29.5857 100.576 29.5857 100.955C29.5857 101.334 29.775 101.712 29.9643 101.901C30.1536 102.091 30.5322 102.28 30.9109 102.28C31.2895 102.28 31.6681 102.091 31.8574 101.901C32.0467 101.712 32.236 101.334 32.236 100.955C32.236 100.576 32.0467 100.198 31.8574 100.008C31.8574 99.8191 31.6681 99.8191 31.4788 99.6298Z" fill="#F7F7F7"/>
</svg>
